<svg id="Capa_1" enable-background="new 0 0 512 512" height="512" viewBox="0 0 512 512" width="512" xmlns="http://www.w3.org/2000/svg"><ellipse cx="256" cy="61.033" fill="#fccfcf" rx="50" ry="49.996"/><path d="m488.213 8.786c-11.716-11.715-30.711-11.715-42.426 0l-123.392 123.383c-3.751 3.75-8.838 5.857-14.142 5.857h-104.505c-5.304 0-10.391-2.107-14.142-5.857l-123.393-123.383c-11.716-11.715-30.711-11.715-42.426 0-11.716 11.715-11.716 30.708 0 42.423l142.213 142.204v287.966c0 16.345 12.816 30.162 29.157 30.61 16.953.464 30.843-13.139 30.843-29.987v-133.99h60v133.366c0 16.345 12.816 30.162 29.157 30.61 16.953.465 30.843-13.138 30.843-29.986v-288.59l142.213-142.202c11.716-11.715 11.716-30.709 0-42.424z" fill="#4bc0ff"/><path d="m488.213 8.786c-11.716-11.715-30.711-11.715-42.426 0l-123.392 123.383c-3.751 3.75-8.838 5.857-14.142 5.857h-52.253v209.985h30v133.366c0 16.345 12.816 30.162 29.157 30.61 16.953.466 30.843-13.137 30.843-29.985v-288.59l142.213-142.202c11.716-11.715 11.716-30.709 0-42.424z" fill="#0592fd"/><path d="m256 11.037v99.993c27.614 0 50-22.384 50-49.996s-22.386-49.997-50-49.997z" fill="#f9a9a9"/></svg>